<?xml version="1.0" encoding="UTF-8" standalone="no"?>
<svg
   version="1.0"
   width="3145.436pt"
   height="3383.24pt"
   viewBox="-100 -100 3145.4361 3383.2399"
   preserveAspectRatio="xMidYMid"
   id="svg8"
   sodipodi:docname="fluent.svg"
   inkscape:version="1.2.2 (732a01da63, 2022-12-09)"
   inkscape:export-filename="E:\PROJECT\SITE\PERSONAL\INFLUX\LOGO\influx.png"
   inkscape:export-xdpi="72.002701"
   inkscape:export-ydpi="72.002701"
   xml:space="preserve"
   xmlns:inkscape="http://www.inkscape.org/namespaces/inkscape"
   xmlns:sodipodi="http://sodipodi.sourceforge.net/DTD/sodipodi-0.dtd"
   xmlns="http://www.w3.org/2000/svg"
   xmlns:svg="http://www.w3.org/2000/svg"><defs
     id="defs12"><rect
       x="-2518.6897"
       y="3068.7483"
       width="5153.1812"
       height="2287.0862"
       id="rect3431" /></defs><sodipodi:namedview
     id="namedview10"
     pagecolor="#ffffff"
     bordercolor="#999999"
     borderopacity="1"
     inkscape:pageshadow="0"
     inkscape:pageopacity="0"
     inkscape:pagecheckerboard="0"
     inkscape:document-units="pt"
     showgrid="false"
     inkscape:zoom="0.125"
     inkscape:cx="-4"
     inkscape:cy="4024"
     inkscape:window-width="1928"
     inkscape:window-height="1704"
     inkscape:window-x="414"
     inkscape:window-y="182"
     inkscape:window-maximized="0"
     inkscape:current-layer="svg8"
     fit-margin-top="150"
     fit-margin-left="150"
     fit-margin-right="150"
     fit-margin-bottom="150"
     lock-margins="true"
     inkscape:showpageshadow="0"
     inkscape:deskcolor="#d1d1d1" /><metadata
     id="metadata2">
Created by potrace 1.12, written by Peter Selinger 2001-2015
</metadata><text
     xml:space="preserve"
     transform="matrix(0.90140648,0,0,0.90140648,2194.6448,-572.55832)"
     id="text3429"
     style="font-style:normal;font-weight:normal;font-size:1200px;line-height:1.25;font-family:sans-serif;white-space:pre;shape-inside:url(#rect3431);fill:#6372f2;fill-opacity:1;stroke:none"><tspan
       x="-2518.6895"
       y="4160.5983"
       id="tspan409"><tspan
         dx="0 0 0 0 0 0.00018310547"
         style="font-family:Giorgio;-inkscape-font-specification:Giorgio"
         id="tspan407">fluent</tspan></tspan></text><g
     id="g319"
     transform="matrix(0.13302152,0,0,0.13302152,111.45127,-248.35118)"><g
       id="l2vDCFMtKAWVNDEku3LOxv5"
       fill="#272728"><g
         id="g248"><path
           id="pm1AOkYOY"
           d="m 6194,6145 c -77,-17 -115,-36 -181,-92 -122,-103 -175,-296 -124,-446 52,-150 156,-245 311,-283 234,-57 476,109 508,349 18,139 -17,252 -112,354 -64,69 -135,108 -227,122 -79,13 -98,13 -175,-4 z" /></g></g><g
       id="l21qO2IFetIndc5hOZURryQ"
       fill="#66a53d"><g
         id="g258"><path
           id="pkgrXoudb"
           d="m 18914,18596 c -23,-13 -77,-50 -120,-82 -236,-174 -807,-566 -1079,-739 -27,-18 -132,-85 -232,-149 -100,-64 -184,-116 -187,-116 -2,0 -60,-35 -128,-78 -68,-42 -154,-96 -193,-118 -38,-23 -116,-69 -173,-103 -57,-33 -105,-61 -108,-61 -3,0 -28,-15 -57,-33 -50,-32 -76,-47 -232,-132 -38,-21 -110,-61 -160,-90 -49,-29 -138,-78 -198,-109 -59,-31 -162,-85 -230,-121 -308,-161 -1157,-575 -1181,-575 -3,0 -34,-13 -68,-28 -197,-90 -432,-192 -508,-222 -30,-12 -68,-28 -85,-35 -67,-29 -353,-145 -360,-145 -4,0 -21,-6 -38,-14 -36,-16 -153,-60 -297,-111 -52,-19 -96,-39 -99,-46 -2,-7 4,-9 15,-5 75,22 951,105 1279,121 66,3 192,10 280,15 88,5 241,14 340,20 568,32 1581,148 1610,184 10,13 17,16 35,16 20,0 551,508 958,918 515,517 897,950 1236,1402 165,220 183,247 191,292 8,41 -14,101 -47,130 -25,21 -62,33 -77,23 -6,-3 -11,-1 -11,4 0,18 -32,12 -76,-13 z" /><path
           id="pQL8WhaCR"
           d="m 15328,11552 c -1,-5 -46,-23 -98,-41 -189,-65 -493,-209 -669,-315 -257,-156 -480,-326 -531,-406 -63,-99 -84,-212 -56,-315 16,-63 53,-135 68,-135 6,0 8,-3 4,-7 -8,-9 54,-73 71,-73 7,0 13,-5 13,-11 0,-15 96,-56 168,-70 49,-10 77,-11 133,-1 87,15 129,36 249,126 430,322 919,532 1435,616 85,14 124,25 133,37 17,24 15,30 -15,50 -16,10 -30,20 -33,23 -3,3 -27,20 -55,38 -27,17 -54,35 -60,39 -5,5 -32,23 -60,40 -27,18 -54,36 -60,40 -10,8 -35,24 -147,96 -32,20 -69,37 -83,37 -17,0 -23,4 -19,14 3,9 -3,17 -15,21 -12,3 -21,11 -21,16 0,5 -5,9 -10,9 -6,0 -29,12 -53,27 -69,45 -101,63 -119,69 -10,4 -18,9 -18,13 0,3 -15,12 -32,20 -18,8 -45,22 -60,33 -27,19 -54,24 -60,10 z" /><path
           id="pyM7RhGyc"
           d="m 17657,9734 c -49,-8 -110,-15 -135,-18 -26,-3 -87,-13 -137,-24 -49,-10 -97,-19 -105,-20 -21,0 -237,-57 -355,-94 -353,-108 -701,-261 -805,-354 -73,-67 -120,-167 -127,-273 -4,-51 -2,-81 4,-81 6,0 8,-11 5,-25 -2,-15 0,-25 7,-25 7,0 9,-5 6,-10 -4,-6 1,-22 9,-35 9,-14 13,-25 9,-25 -5,0 -1,-5 7,-10 8,-5 15,-14 15,-20 0,-6 7,-15 15,-20 8,-5 11,-10 5,-10 -5,0 16,-25 48,-55 81,-76 145,-99 267,-100 93,0 98,1 200,49 229,106 310,140 440,186 410,145 895,209 1304,171 91,-9 129,-5 124,11 -9,27 -146,187 -163,190 -11,2 -19,9 -17,17 3,13 -56,85 -154,191 -28,30 -73,80 -100,110 -27,30 -54,60 -61,67 -6,7 -21,13 -33,13 -16,0 -20,4 -16,16 4,10 -22,43 -82,103 l -87,88 z" /><path
           id="pA58aCz97"
           d="m 9712,8608 c -200,-440 -307,-688 -423,-987 l -48,-124 55,-61 c 30,-33 121,-124 202,-200 81,-77 192,-182 247,-235 278,-266 665,-619 1000,-910 110,-96 233,-204 274,-240 41,-36 122,-106 181,-156 59,-49 174,-146 254,-215 81,-69 164,-138 186,-155 21,-16 176,-145 346,-285 169,-140 320,-264 335,-275 15,-11 148,-117 296,-235 259,-209 342,-274 449,-356 28,-21 100,-77 160,-124 118,-93 418,-316 489,-365 24,-16 97,-68 162,-115 65,-47 145,-104 178,-127 74,-52 533,-359 596,-399 25,-16 104,-66 175,-112 188,-120 394,-243 624,-372 349,-195 522,-283 865,-440 328,-150 660,-252 820,-253 91,0 117,10 133,50 38,96 83,359 102,588 48,578 22,1190 -76,1835 -27,178 -71,421 -76,424 -2,1 -21,8 -43,15 -59,19 -245,89 -280,105 -16,8 -43,19 -60,24 -61,21 -262,100 -315,124 -30,14 -140,60 -245,103 -104,42 -210,87 -235,99 -25,12 -65,31 -90,42 -25,11 -65,30 -90,41 -25,12 -56,25 -69,29 -14,3 -75,30 -135,58 -61,29 -165,77 -231,106 -66,30 -121,58 -123,62 -2,4 -11,8 -19,8 -8,0 -32,9 -52,19 -37,20 -243,115 -321,149 -143,62 -1252,602 -1276,621 -5,4 -27,14 -47,20 -20,7 -37,16 -37,21 0,4 -12,11 -27,15 -15,3 -30,10 -33,13 -3,4 -65,36 -139,72 -74,36 -149,75 -167,86 -17,12 -42,25 -55,29 -12,4 -27,11 -33,16 -6,5 -60,34 -121,64 -60,30 -146,74 -190,98 -44,23 -109,58 -145,77 -36,19 -67,37 -70,41 -3,3 -27,16 -55,28 -27,12 -52,25 -55,29 -3,4 -45,27 -94,52 -49,25 -94,50 -101,55 -6,6 -58,34 -115,64 -58,30 -107,57 -110,61 -3,3 -20,12 -37,19 -18,8 -33,17 -33,22 0,5 -6,9 -14,9 -8,0 -21,6 -28,13 -7,7 -32,21 -55,31 -24,11 -43,23 -43,28 0,4 -5,8 -10,8 -11,0 -170,89 -180,100 -3,3 -24,14 -47,24 -24,11 -43,23 -43,28 0,4 -5,8 -10,8 -13,0 -384,222 -388,233 -2,4 -9,7 -16,7 -7,0 -21,8 -32,18 -11,9 -41,28 -67,41 -26,13 -47,28 -47,32 0,5 -5,9 -12,9 -10,0 -134,75 -148,90 -3,3 -22,13 -42,24 -20,10 -45,26 -55,35 -10,9 -35,25 -55,36 -21,11 -38,23 -38,27 0,5 -7,8 -15,8 -8,0 -15,5 -15,10 0,6 -5,10 -10,10 -16,0 -140,81 -140,91 0,5 -7,9 -15,9 -8,0 -15,4 -15,9 0,5 -13,14 -30,20 -16,5 -30,14 -30,18 0,4 -13,14 -28,21 -16,6 -38,21 -50,32 -12,11 -26,20 -32,20 -5,0 -10,3 -10,8 0,4 -13,13 -28,20 -16,6 -38,21 -50,32 -12,11 -26,20 -32,20 -5,0 -10,5 -10,10 0,6 -7,10 -16,10 -8,0 -12,5 -9,10 3,6 -2,10 -13,10 -10,0 -28,9 -40,20 -12,11 -26,20 -32,20 -5,0 -10,5 -10,10 0,6 -7,10 -15,10 -9,0 -18,7 -21,15 -4,8 -12,15 -20,15 -8,0 -14,5 -14,10 0,6 -7,10 -15,10 -8,0 -15,5 -15,10 0,6 -7,10 -15,10 -8,0 -15,5 -15,10 0,6 -6,10 -14,10 -7,0 -25,11 -40,25 -15,14 -31,25 -36,25 -4,0 -10,4 -12,9 -1,4 -13,11 -25,15 -18,6 -25,0 -41,-36 z" /><path
           id="pdZGSJXHo"
           d="m 19185,7528 c -289,-9 -315,-11 -430,-33 -49,-9 -108,-18 -130,-20 -157,-12 -689,-160 -809,-224 -125,-66 -205,-192 -214,-333 -5,-80 12,-178 31,-178 6,0 7,-3 4,-7 -8,-8 20,-54 40,-66 7,-5 11,-12 8,-16 -7,-12 76,-86 124,-110 118,-60 228,-60 402,2 227,81 483,138 759,167 121,13 550,19 550,8 0,-5 19,-8 43,-8 23,0 80,-7 127,-15 100,-18 150,-19 150,-4 0,24 -95,227 -103,222 -6,-3 -7,-1 -4,5 10,15 -3,43 -16,35 -6,-3 -7,-1 -3,6 10,16 -184,402 -197,394 -6,-3 -7,-1 -4,5 10,15 -3,43 -16,35 -6,-3 -7,-1 -3,5 6,10 -8,41 -50,107 l -19,30 z" /><path
           id="p8nJPKfxB"
           d="m 4597,6459 c -41,-10 -107,-41 -148,-70 -14,-10 -29,-16 -32,-12 -4,3 -14,-3 -24,-15 -19,-22 -189,-139 -250,-172 -21,-11 -45,-25 -53,-30 -33,-21 -146,-87 -160,-93 -8,-4 -55,-29 -105,-57 -174,-96 -662,-330 -690,-330 -3,0 -30,-11 -58,-24 -125,-57 -423,-163 -652,-231 C 1808,5241 1245,5147 540,5110 270,5096 199,5073 110,4973 48,4902 40,4883 25,4761 c -8,-65 21,-237 46,-273 60,-88 139,-142 244,-167 47,-11 360,-3 545,14 897,82 1551,227 2330,515 47,18 96,35 110,40 14,4 120,49 235,100 116,50 238,102 272,115 34,12 150,68 259,124 253,131 487,269 794,469 121,79 194,172 219,277 12,53 12,205 -1,205 -4,0 -5,7 -2,15 4,8 1,15 -6,15 -6,0 -8,5 -5,10 3,6 1,10 -5,10 -6,0 -8,5 -5,10 3,6 2,10 -4,10 -6,0 -13,11 -17,25 -3,14 -10,25 -16,25 -5,0 -7,4 -4,8 6,10 -67,82 -83,82 -6,0 -11,5 -11,10 0,6 -6,10 -14,10 -8,0 -16,3 -18,8 -1,4 -27,15 -57,26 -63,21 -179,29 -234,15 z" /><path
           id="pinf5OQma"
           d="m 6120,5330 c 0,-5 7,-10 15,-10 8,0 15,5 15,10 0,6 -7,10 -15,10 -8,0 -15,-4 -15,-10 z" /></g></g><g
       id="l2bA8Bc4g31RGHKkk53cx9Q"
       fill="#7fd449"><g
         id="g263"><path
           id="p9tabjGR5"
           d="m 19735,16556 c -268,-90 -554,-179 -775,-241 -91,-25 -194,-54 -230,-65 -339,-99 -1155,-282 -1620,-365 -113,-20 -239,-43 -280,-51 -41,-8 -91,-16 -110,-19 -19,-2 -109,-15 -200,-29 -383,-59 -998,-122 -1425,-146 -99,-6 -252,-15 -340,-20 -88,-5 -214,-12 -280,-15 -334,-16 -1247,-103 -1279,-122 -4,-3 -12,0 -16,7 -4,7 -16,9 -29,5 -12,-3 -19,-9 -17,-13 2,-4 -12,-8 -32,-9 -21,0 -118,-15 -217,-32 -99,-17 -263,-44 -365,-61 -331,-54 -523,-90 -819,-154 -118,-25 -228,-46 -244,-46 -20,0 -30,-6 -34,-20 -3,-13 -46,-41 -122,-82 -64,-34 -165,-91 -226,-126 -60,-35 -124,-73 -142,-83 -38,-21 -105,-62 -153,-94 -19,-12 -60,-37 -90,-56 -514,-318 -1036,-750 -1429,-1184 -189,-209 -461,-548 -461,-575 0,-6 -4,-10 -10,-10 -5,0 -10,-5 -10,-10 0,-6 -4,-16 -10,-23 -46,-56 -60,-76 -60,-84 0,-5 -8,-18 -18,-29 -28,-30 -82,-111 -82,-123 0,-6 -4,-11 -9,-11 -5,0 -12,-11 -15,-25 -4,-14 -11,-25 -16,-25 -6,0 -10,-5 -10,-12 0,-6 -11,-26 -25,-44 -14,-18 -25,-36 -25,-40 0,-4 -11,-21 -24,-38 -13,-17 -26,-41 -30,-53 -4,-13 -11,-23 -16,-23 -4,0 -11,-11 -14,-25 -4,-14 -10,-25 -15,-25 -5,0 -15,-16 -21,-35 -6,-19 -16,-35 -21,-35 -6,0 -7,-4 -4,-10 3,-5 2,-10 -3,-10 -6,0 -13,-11 -16,-25 -4,-14 -11,-25 -17,-25 -6,0 -7,-4 -4,-10 3,-5 2,-10 -2,-10 -5,0 -15,-16 -22,-35 -7,-19 -17,-35 -23,-35 -6,0 -8,-3 -5,-7 4,-3 1,-13 -7,-22 -8,-9 -24,-40 -36,-68 -12,-29 -27,-53 -33,-53 -6,0 -7,-3 -4,-7 4,-3 0,-15 -10,-25 -9,-10 -12,-18 -7,-18 5,0 5,-4 -1,-8 -12,-9 -115,-216 -115,-231 0,-6 -5,-11 -11,-11 -5,0 -7,-4 -4,-10 3,-5 1,-10 -5,-10 -6,0 -9,-4 -6,-9 3,-5 -1,-14 -9,-21 -8,-7 -12,-16 -9,-21 3,-5 0,-9 -6,-9 -6,0 -8,-4 -5,-10 3,-5 1,-10 -4,-10 -6,0 -10,-3 -9,-7 4,-15 -13,-53 -23,-53 -6,0 -7,-4 -4,-10 3,-5 1,-10 -6,-10 -7,0 -10,-3 -6,-6 3,-4 -8,-34 -25,-68 -18,-33 -31,-64 -30,-68 1,-5 -3,-8 -9,-8 -5,0 -7,-5 -4,-10 3,-6 1,-10 -4,-10 -6,0 -10,-3 -9,-7 4,-15 -13,-53 -23,-53 -6,0 -7,-4 -4,-10 3,-6 1,-10 -6,-10 -7,0 -10,-3 -7,-6 7,-6 -180,-386 -194,-395 -5,-3 -9,-10 -9,-15 1,-18 -11,-44 -20,-44 -6,0 -7,-4 -4,-10 3,-6 1,-10 -5,-10 -6,0 -9,-4 -6,-9 3,-5 -1,-14 -9,-21 -8,-7 -12,-16 -9,-21 3,-5 1,-9 -3,-9 -5,0 -15,-15 -21,-34 -7,-19 -24,-50 -37,-70 -13,-20 -21,-36 -17,-36 4,0 2,-4 -3,-8 -6,-4 -19,-26 -29,-49 -11,-24 -23,-43 -28,-43 -5,0 -7,-4 -4,-9 3,-5 -1,-14 -9,-21 -7,-6 -22,-31 -31,-56 -9,-24 -21,-44 -26,-44 -5,0 -6,-4 -3,-10 3,-6 2,-10 -4,-10 -5,0 -15,-16 -21,-35 -6,-19 -16,-35 -21,-35 -6,0 -7,-4 -4,-10 3,-5 2,-10 -4,-10 -6,0 -13,-11 -17,-25 -3,-14 -10,-25 -14,-25 -5,0 -14,-16 -20,-35 -6,-19 -15,-35 -20,-35 -5,0 -14,-16 -21,-35 -7,-19 -16,-35 -20,-35 -4,0 -13,-16 -19,-35 -6,-19 -16,-35 -21,-35 -5,0 -9,-6 -9,-13 0,-8 -9,-24 -20,-37 -11,-13 -20,-29 -20,-36 0,-7 -6,-19 -12,-26 -19,-20 -38,-50 -44,-70 -4,-10 -10,-18 -14,-18 -4,0 -10,-8 -14,-17 -3,-10 -15,-31 -26,-48 -11,-16 -23,-38 -26,-47 -4,-10 -10,-18 -14,-18 -4,0 -11,-11 -14,-25 -4,-14 -11,-25 -16,-25 -6,0 -10,-5 -10,-10 0,-6 -25,-46 -55,-89 -30,-43 -55,-84 -55,-90 0,-6 -4,-11 -10,-11 -5,0 -10,-6 -10,-13 0,-7 -8,-22 -18,-33 -9,-10 -23,-31 -31,-46 -8,-16 -18,-28 -23,-28 -4,0 -8,-6 -8,-13 0,-7 -8,-22 -18,-33 -10,-10 -42,-55 -72,-99 -30,-44 -60,-85 -67,-92 -6,-7 -21,-29 -34,-50 -13,-21 -34,-49 -46,-63 -13,-14 -23,-28 -23,-32 0,-3 -6,-13 -13,-20 -11,-12 -45,-55 -117,-149 -241,-316 -569,-668 -865,-930 -125,-110 -370,-299 -484,-373 -147,-95 -186,-119 -197,-119 -6,0 -17,-23 -24,-51 -7,-28 -18,-69 -25,-91 -7,-22 -23,-71 -35,-110 -62,-198 -141,-398 -231,-580 -21,-44 -39,-84 -39,-88 0,-5 13,1 29,13 73,51 143,74 231,75 81,1 199,-26 208,-47 2,-5 10,-8 18,-8 8,0 14,-4 14,-10 0,-5 5,-10 11,-10 16,0 89,-72 83,-82 -3,-4 -1,-8 4,-8 6,0 13,-11 16,-25 4,-14 11,-25 17,-25 6,0 7,-5 4,-10 -3,-6 -1,-10 5,-10 6,0 8,-5 5,-10 -3,-6 -1,-10 5,-10 7,0 10,-7 6,-15 -3,-8 -2,-15 2,-15 13,0 13,-152 1,-205 -25,-105 -98,-198 -219,-277 -318,-207 -549,-343 -818,-480 -119,-61 -219,-113 -222,-115 -19,-16 407,-316 565,-399 39,-20 99,-53 135,-74 340,-197 831,-363 1254,-426 147,-22 500,-30 649,-14 646,65 1229,368 1669,867 272,309 444,632 738,1388 115,294 227,581 304,777 36,93 66,171 66,175 0,4 9,25 19,47 10,23 39,95 64,161 89,233 227,559 371,875 68,148 78,165 98,162 13,-1 25,-7 26,-12 2,-6 8,-10 12,-10 5,0 21,-11 36,-25 15,-14 33,-25 40,-25 8,0 14,-4 14,-10 0,-5 7,-10 15,-10 8,0 15,-4 15,-10 0,-5 7,-10 15,-10 8,0 15,-4 15,-10 0,-5 6,-10 14,-10 8,0 16,-7 20,-15 3,-8 12,-15 21,-15 8,0 15,-4 15,-10 0,-5 5,-10 10,-10 6,0 20,-9 32,-20 12,-11 30,-20 40,-20 11,0 16,-5 13,-10 -3,-5 1,-10 9,-10 9,0 16,-4 16,-10 0,-5 5,-10 10,-10 6,0 20,-9 32,-20 12,-11 34,-26 50,-32 15,-7 28,-16 28,-20 0,-5 5,-8 10,-8 6,0 20,-9 32,-20 12,-11 34,-26 50,-32 15,-7 28,-17 28,-21 0,-4 14,-13 30,-18 17,-6 30,-15 30,-20 0,-5 7,-9 15,-9 8,0 15,-4 15,-9 0,-10 124,-91 140,-91 5,0 10,-4 10,-10 0,-5 7,-10 15,-10 8,0 15,-3 15,-8 0,-4 17,-16 38,-27 20,-11 45,-27 55,-36 10,-9 35,-25 55,-35 20,-11 39,-21 42,-24 14,-15 138,-90 148,-90 7,0 12,-4 12,-9 0,-4 21,-19 47,-32 26,-13 56,-32 67,-42 11,-9 25,-17 32,-17 7,0 14,-3 16,-7 4,-11 375,-233 388,-233 5,0 10,-4 10,-8 0,-5 19,-17 43,-28 23,-10 44,-21 47,-24 10,-11 169,-100 180,-100 5,0 10,-4 10,-8 0,-5 19,-17 43,-28 23,-10 48,-24 55,-31 7,-7 20,-13 28,-13 8,0 14,-4 14,-9 0,-5 15,-14 33,-22 17,-7 34,-16 37,-19 3,-4 52,-31 110,-61 57,-30 109,-58 115,-64 7,-5 52,-30 101,-55 49,-25 91,-48 94,-52 3,-4 28,-17 55,-29 28,-12 52,-25 55,-28 3,-4 34,-22 70,-41 36,-19 101,-54 145,-77 44,-24 130,-68 190,-98 61,-30 115,-59 121,-64 6,-5 21,-12 33,-16 13,-4 38,-17 55,-29 18,-11 93,-50 167,-86 74,-36 136,-68 139,-72 3,-3 18,-10 33,-13 15,-4 27,-11 27,-15 0,-5 17,-14 37,-21 20,-6 42,-16 47,-20 24,-19 1133,-559 1276,-621 78,-34 284,-129 321,-149 20,-10 44,-19 52,-19 8,0 17,-4 19,-8 2,-4 57,-32 123,-62 66,-29 170,-77 231,-106 60,-28 121,-55 135,-58 13,-4 42,-16 64,-26 22,-10 63,-29 90,-41 28,-12 70,-33 95,-45 25,-12 131,-57 235,-99 105,-43 215,-89 245,-103 53,-24 254,-103 315,-124 17,-5 44,-16 60,-24 31,-14 210,-82 279,-106 32,-11 40,-11 44,0 3,9 8,10 16,3 16,-14 375,-143 621,-224 959,-315 1799,-497 2291,-497 114,0 261,24 284,46 13,13 15,56 12,284 -3,320 -23,468 -117,865 -66,280 -212,758 -229,748 -5,-3 -6,-1 -2,5 8,14 -50,179 -165,464 l -83,208 h -35 c -20,0 -74,7 -121,15 -47,8 -104,15 -127,15 -24,0 -43,3 -43,8 0,11 -429,5 -550,-8 -276,-29 -532,-86 -759,-167 -174,-62 -284,-62 -402,-2 -48,24 -131,98 -124,110 3,4 -1,11 -8,16 -20,12 -48,58 -40,66 3,4 2,7 -4,7 -19,0 -36,98 -31,178 9,141 89,267 214,333 120,64 652,212 809,224 22,2 81,11 130,20 116,22 125,23 418,31 136,4 247,8 247,9 0,8 -203,341 -302,495 -193,301 -375,557 -572,805 l -79,100 -51,2 c -407,19 -421,19 -601,1 -226,-23 -331,-40 -520,-88 -229,-59 -372,-112 -705,-266 -102,-48 -107,-49 -200,-49 -122,1 -186,24 -267,100 -32,30 -53,55 -48,55 6,0 3,5 -5,10 -8,5 -15,14 -15,20 0,6 -7,15 -15,20 -8,5 -12,10 -7,10 4,0 0,11 -9,25 -8,13 -13,29 -9,35 3,5 1,10 -6,10 -7,0 -9,10 -7,25 3,14 1,25 -5,25 -6,0 -8,30 -4,81 7,106 54,206 127,273 104,93 452,246 805,354 118,37 334,94 355,94 8,1 56,10 105,20 50,11 106,21 125,23 120,12 230,30 230,37 0,4 -5,8 -10,8 -6,0 -74,62 -153,138 -299,290 -614,556 -1007,851 -135,101 -258,195 -273,210 l -28,26 -17,-23 c -14,-18 -38,-25 -137,-42 -517,-84 -1005,-294 -1435,-616 -120,-90 -162,-111 -249,-126 -56,-10 -84,-9 -133,1 -72,14 -168,55 -168,70 0,6 -6,11 -13,11 -17,0 -79,64 -71,73 4,4 2,7 -4,7 -15,0 -52,72 -68,135 -28,103 -7,216 56,315 51,80 274,250 531,406 178,107 485,252 672,316 53,18 97,38 97,45 0,11 -52,42 -255,151 -105,56 -402,202 -412,202 -3,0 -32,14 -65,30 -171,87 -594,231 -948,324 -225,58 -692,154 -777,160 -38,2 -28,18 32,56 17,11 107,70 202,132 95,62 208,136 253,163 255,159 358,221 424,258 28,16 56,33 61,37 6,4 66,39 135,78 69,38 165,93 214,122 49,28 132,74 185,102 53,29 112,61 131,73 19,12 89,50 155,85 66,35 145,78 175,95 64,38 132,75 245,135 44,23 85,46 90,50 6,4 44,24 85,45 41,22 87,47 103,58 44,30 357,190 882,451 497,248 607,301 795,386 95,43 193,90 585,279 66,32 183,88 260,124 146,69 633,314 650,327 6,4 48,27 95,51 94,48 331,177 428,233 34,20 88,51 120,69 391,228 880,566 915,634 23,43 16,91 -17,129 -42,49 -91,44 -341,-40 z M 6369,6149 c 92,-14 163,-53 227,-122 95,-102 130,-215 112,-354 -17,-128 -103,-252 -215,-310 -29,-16 -53,-31 -53,-35 0,-4 -7,-5 -15,-2 -8,4 -15,2 -15,-4 0,-5 -11,-7 -25,-4 -14,2 -25,0 -25,-5 0,-11 -165,4 -191,18 -13,6 -19,6 -19,-1 0,-5 -7,-10 -15,-10 -8,0 -15,7 -15,15 0,8 -4,15 -9,15 -5,0 -35,20 -68,44 -105,77 -173,209 -173,336 0,126 54,248 143,323 66,56 104,75 181,92 77,17 96,17 175,4 z" /><path
           id="p1BPBbt8wc"
           d="m 17910,9550 c 0,-5 7,-10 15,-10 8,0 15,5 15,10 0,6 -7,10 -15,10 -8,0 -15,-4 -15,-10 z" /></g></g><g
       id="l3mbIuVfsDWaovuJUTsaRRa"
       fill="#f6f394"><g
         id="g276"><path
           id="p17FL9186V"
           d="m 11330,15149 c -41,-11 -86,-22 -100,-25 -14,-3 -63,-17 -110,-31 -47,-13 -110,-31 -140,-40 -30,-8 -80,-23 -110,-33 -30,-10 -95,-30 -145,-45 -49,-14 -110,-35 -135,-45 -25,-9 -58,-20 -73,-24 -17,-4 -25,-11 -21,-18 4,-6 3,-8 -2,-5 -12,7 -87,-9 -129,-28 -16,-7 -68,-27 -115,-45 -47,-17 -94,-35 -105,-40 -11,-5 -37,-14 -57,-20 -20,-6 -64,-24 -98,-41 -33,-16 -65,-29 -70,-29 -10,0 -63,-22 -145,-60 -22,-10 -65,-29 -95,-43 -213,-99 -411,-198 -407,-204 3,-4 -5,-9 -16,-9 -12,-1 -106,-43 -209,-93 -102,-50 -191,-91 -197,-91 -6,0 -11,-4 -11,-8 0,-5 -18,-15 -40,-22 -22,-7 -40,-17 -40,-22 0,-4 -7,-8 -15,-8 -15,0 -136,-58 -145,-70 -3,-3 -21,-12 -40,-20 -19,-8 -37,-17 -40,-20 -3,-3 -21,-12 -40,-20 -19,-8 -37,-16 -40,-20 -3,-3 -34,-21 -70,-39 -36,-19 -78,-43 -95,-53 -16,-9 -48,-27 -70,-39 -22,-12 -42,-24 -45,-28 -3,-3 -15,-12 -27,-18 -13,-7 -33,-19 -45,-25 -13,-7 -25,-16 -28,-19 -3,-3 -25,-16 -50,-30 -25,-13 -49,-28 -55,-32 -5,-5 -48,-35 -95,-67 -47,-33 -92,-64 -100,-70 -17,-12 -65,-44 -95,-62 -11,-7 -22,-15 -25,-18 -3,-3 -21,-17 -40,-30 -19,-13 -48,-37 -65,-52 -16,-15 -35,-28 -42,-28 -6,0 -13,-3 -15,-8 -1,-4 -28,-28 -58,-52 -30,-25 -57,-47 -60,-50 -3,-3 -30,-25 -60,-50 -30,-25 -71,-60 -90,-79 -19,-18 -60,-54 -90,-80 -74,-63 -298,-288 -390,-391 -41,-47 -80,-91 -87,-98 -7,-7 -29,-34 -50,-60 -21,-26 -45,-54 -53,-62 -8,-8 -27,-31 -41,-50 -15,-19 -41,-51 -58,-70 -17,-19 -31,-38 -31,-42 0,-4 -6,-13 -13,-20 -7,-7 -36,-44 -65,-83 -28,-38 -56,-75 -61,-81 -27,-32 -231,-345 -231,-354 0,-5 -4,-10 -8,-10 -4,0 -18,-19 -30,-42 -13,-24 -34,-62 -49,-86 -14,-24 -22,-46 -18,-50 4,-4 12,2 19,12 6,10 19,26 29,35 10,9 20,33 24,54 3,21 8,35 11,32 10,-10 32,18 32,41 0,14 5,23 13,21 7,-1 12,7 11,20 0,12 4,21 9,20 8,-2 42,42 82,105 23,35 107,157 145,208 22,30 45,65 52,78 6,12 15,22 19,22 5,0 20,18 34,40 14,23 33,48 43,58 16,16 88,105 130,160 9,12 34,40 55,62 20,22 37,42 37,45 0,3 36,41 80,84 44,44 80,87 80,95 0,8 9,18 21,21 11,4 24,18 29,31 5,13 16,24 25,24 8,0 21,11 27,25 6,14 17,25 23,25 7,0 40,29 73,64 34,35 62,62 62,59 0,-3 10,5 23,18 33,35 136,128 186,169 24,19 55,47 69,63 15,15 31,27 37,27 5,0 30,19 55,41 25,23 62,52 83,65 20,13 37,29 37,34 0,5 11,12 24,16 14,3 27,12 30,20 3,8 12,14 19,14 8,0 32,14 53,30 22,17 48,37 59,45 10,8 25,15 32,15 7,0 13,4 13,8 0,5 30,29 67,53 36,24 78,52 92,61 14,10 37,23 51,29 14,6 33,18 43,26 18,17 49,36 82,52 12,5 27,16 34,24 7,9 26,19 42,22 16,4 33,13 37,22 5,8 24,18 43,22 26,5 35,13 37,30 2,14 7,20 11,13 5,-8 14,-7 31,3 14,8 39,20 56,28 17,8 34,20 38,25 3,6 19,13 35,17 16,3 35,12 41,20 6,8 24,17 40,20 16,3 34,12 40,20 6,8 24,17 40,20 16,3 34,13 40,20 7,8 27,17 46,21 18,3 38,12 45,20 6,8 29,19 50,24 23,6 39,17 39,25 0,10 11,15 33,15 20,0 39,8 50,20 9,11 27,20 40,20 13,0 32,9 42,20 10,11 30,20 44,20 15,0 34,9 44,20 9,11 27,20 40,20 12,0 30,9 40,20 9,11 28,20 42,20 14,0 28,7 31,15 3,8 21,17 40,21 19,3 39,15 45,25 5,11 20,19 33,19 13,0 31,9 41,20 10,11 30,20 44,20 15,0 34,9 44,20 9,11 28,20 41,20 13,0 29,7 36,15 7,8 30,20 51,25 22,6 39,15 39,20 0,4 18,11 41,15 23,4 45,15 52,26 8,13 23,19 50,19 24,0 40,5 43,15 4,8 24,18 45,21 21,4 44,13 50,20 6,8 29,17 50,20 21,4 44,13 50,20 6,7 27,16 48,20 20,4 43,12 51,19 8,8 33,17 55,21 22,4 51,15 64,25 13,11 37,19 54,19 17,0 38,7 47,15 9,8 39,18 66,21 28,4 57,15 67,25 10,11 32,19 51,19 19,0 43,9 56,20 16,14 37,20 68,20 27,0 52,6 62,15 10,9 41,20 70,24 32,5 56,15 62,25 7,12 24,16 65,16 37,0 62,5 74,16 10,9 37,18 61,21 24,4 52,12 63,18 11,7 38,16 60,19 38,6 39,6 20,-9 -11,-9 -51,-32 -90,-52 -38,-19 -77,-40 -85,-47 -8,-7 -26,-18 -40,-24 -14,-7 -43,-23 -65,-37 -22,-13 -51,-30 -65,-37 -14,-7 -46,-27 -72,-45 -26,-18 -52,-33 -57,-33 -5,0 -16,-6 -23,-14 -8,-7 -27,-21 -43,-30 -46,-25 -68,-39 -98,-63 -16,-13 -32,-23 -37,-23 -10,0 -56,-30 -117,-76 -21,-16 -45,-33 -54,-39 -110,-68 -552,-405 -610,-464 -8,-9 -44,-41 -80,-71 -146,-125 -433,-415 -598,-606 -59,-67 -273,-339 -328,-416 -112,-156 -233,-334 -233,-342 0,-3 -25,-42 -56,-87 -31,-45 -60,-92 -65,-103 -6,-12 -21,-39 -34,-61 -14,-22 -32,-53 -41,-70 -8,-16 -26,-48 -40,-70 -13,-22 -31,-53 -40,-70 -8,-16 -26,-48 -39,-70 -14,-22 -29,-51 -35,-65 -5,-14 -14,-32 -20,-40 -5,-8 -16,-28 -25,-45 -8,-16 -19,-37 -25,-45 -5,-8 -14,-26 -20,-40 -5,-14 -14,-32 -20,-40 -5,-8 -14,-26 -20,-40 -5,-14 -14,-32 -20,-40 -5,-8 -14,-26 -20,-40 -5,-14 -14,-32 -20,-40 -5,-8 -14,-26 -20,-40 -5,-14 -14,-32 -19,-40 -10,-16 -83,-170 -100,-210 -6,-14 -15,-32 -21,-40 -5,-8 -14,-26 -20,-40 -5,-14 -14,-32 -19,-40 -5,-8 -21,-42 -36,-75 -15,-33 -31,-67 -36,-75 -5,-8 -14,-26 -20,-40 -6,-14 -15,-32 -20,-40 -5,-8 -14,-26 -20,-40 -6,-14 -15,-32 -20,-40 -5,-8 -25,-46 -44,-85 -20,-38 -40,-77 -45,-85 -6,-8 -14,-26 -20,-40 -5,-14 -14,-32 -20,-40 -5,-8 -15,-26 -20,-40 -6,-14 -21,-43 -35,-65 -13,-22 -29,-51 -35,-65 -14,-33 -17,-38 -45,-85 -13,-22 -40,-71 -60,-110 -20,-38 -48,-88 -61,-110 -13,-22 -30,-53 -39,-70 -9,-16 -27,-48 -40,-70 -14,-22 -32,-53 -41,-70 -8,-16 -26,-48 -39,-70 -13,-22 -34,-56 -45,-75 -11,-19 -29,-48 -40,-65 -11,-16 -27,-43 -36,-60 -9,-16 -20,-32 -23,-35 -4,-3 -12,-16 -19,-30 -29,-55 -50,-90 -125,-201 -42,-64 -77,-119 -77,-123 0,-4 -18,-29 -40,-57 -22,-28 -40,-57 -40,-64 0,-7 -7,-18 -15,-25 -8,-7 -39,-49 -70,-94 -86,-126 -150,-214 -173,-239 -12,-13 -22,-27 -22,-31 0,-7 -355,-454 -370,-466 -3,-3 -51,-54 -105,-115 -175,-193 -379,-390 -615,-593 -116,-101 -492,-362 -520,-362 -6,0 -9,8 -6,18 3,9 8,40 12,67 3,28 13,57 21,66 10,12 13,36 11,80 l -3,64 -13,-60 c -15,-71 -30,-132 -39,-160 -3,-11 -8,-44 -10,-74 -4,-43 -2,-52 9,-45 7,4 38,23 68,43 298,187 551,388 839,666 100,97 357,376 463,505 53,64 139,171 168,209 72,94 106,137 117,149 7,7 13,17 13,20 0,4 10,18 23,32 12,14 33,42 46,63 13,21 28,43 34,50 7,7 37,48 67,92 30,44 62,89 72,99 10,11 18,26 18,33 0,7 4,13 8,13 5,0 15,12 23,28 8,15 22,36 32,46 9,11 17,26 17,33 0,7 5,13 10,13 6,0 10,5 10,11 0,6 25,47 55,90 30,43 55,83 55,89 0,5 4,10 10,10 5,0 12,11 16,25 3,14 10,25 14,25 4,0 10,8 14,18 3,9 15,31 26,47 11,17 23,38 26,48 4,9 10,17 14,17 4,0 10,8 14,18 6,20 25,50 44,70 6,7 12,19 12,26 0,7 9,23 20,36 11,13 20,29 20,37 0,7 4,13 9,13 5,0 15,16 21,35 6,19 15,35 19,35 4,0 13,16 20,35 7,19 16,35 21,35 5,0 14,16 20,35 6,19 15,35 20,35 4,0 11,11 14,25 4,14 11,25 17,25 6,0 7,5 4,10 -3,6 -2,10 4,10 5,0 15,16 21,35 6,19 16,35 21,35 6,0 7,5 4,10 -3,6 -2,10 3,10 5,0 17,20 26,44 9,25 24,50 31,56 8,7 12,16 9,21 -3,5 -1,9 4,9 5,0 17,19 28,43 10,23 23,45 29,49 5,4 7,8 3,8 -4,0 4,16 17,36 13,20 30,51 37,70 6,19 16,34 21,34 4,0 6,4 3,9 -3,5 1,14 9,21 8,7 12,16 9,21 -3,5 0,9 6,9 6,0 8,5 5,10 -3,6 -2,10 4,10 9,0 27,40 22,49 -2,2 2,7 7,10 14,9 201,389 194,395 -3,3 0,6 7,6 7,0 9,4 6,10 -3,6 -2,10 4,10 10,0 27,38 23,53 -1,4 3,7 9,7 5,0 7,5 4,10 -3,6 -1,10 4,10 6,0 10,3 9,8 -1,4 12,35 30,68 17,34 28,64 25,68 -4,3 -1,6 6,6 7,0 9,5 6,10 -3,6 -2,10 4,10 10,0 27,38 23,53 -1,4 3,7 9,7 5,0 7,5 4,10 -3,6 -1,10 5,10 6,0 9,4 6,9 -3,5 1,14 9,21 8,7 12,16 9,21 -3,5 0,9 6,9 6,0 8,5 5,10 -3,6 -1,10 4,10 6,0 11,5 11,11 0,15 103,222 115,231 6,4 6,8 1,8 -5,0 -2,8 7,18 10,10 14,22 10,25 -3,4 -2,7 4,7 6,0 21,24 33,53 12,28 28,59 36,68 8,9 11,19 7,22 -3,4 -1,7 5,7 6,0 16,16 23,35 7,19 17,35 22,35 4,0 5,5 2,10 -3,6 -2,10 4,10 6,0 13,11 17,25 3,14 10,25 16,25 5,0 6,5 3,10 -3,6 -2,10 4,10 5,0 15,16 21,35 6,19 16,35 21,35 5,0 11,11 15,25 3,14 10,25 14,25 5,0 12,10 16,23 4,12 17,36 30,53 13,17 24,34 24,38 0,4 11,22 25,40 14,18 25,38 25,44 0,7 4,12 10,12 5,0 12,11 16,25 3,14 10,25 15,25 5,0 9,5 9,11 0,12 54,93 82,123 10,11 18,24 18,29 0,8 14,28 60,84 6,7 10,17 10,23 0,5 5,10 10,10 6,0 10,4 10,10 0,27 272,366 461,575 393,434 915,866 1429,1184 30,19 71,44 90,56 48,32 115,73 153,94 18,10 82,48 142,83 61,35 163,92 228,127 66,35 117,69 117,77 0,17 3,17 -90,-7 z" /><path
           id="p18uX4d1Uy"
           d="m 5914,11522 c -18,-12 -45,-72 -38,-84 4,-6 3,-8 -3,-5 -5,4 -25,-24 -43,-61 -18,-37 -42,-79 -52,-94 -11,-15 -20,-37 -21,-48 -1,-11 -7,-22 -15,-25 -8,-3 -11,-12 -8,-21 3,-8 2,-12 -4,-9 -6,3 -10,-2 -10,-12 0,-10 -9,-29 -20,-43 -11,-14 -20,-31 -20,-38 0,-7 -7,-24 -16,-37 -9,-13 -12,-30 -8,-37 4,-7 4,-10 -1,-6 -7,7 -27,-30 -72,-132 -11,-25 -30,-67 -42,-93 -12,-26 -19,-52 -16,-57 4,-6 1,-10 -6,-10 -7,0 -9,-3 -6,-6 3,-4 -3,-18 -13,-32 -11,-13 -20,-35 -20,-48 0,-13 -5,-24 -11,-24 -6,0 -9,-7 -5,-15 3,-8 1,-15 -4,-15 -6,0 -10,-8 -10,-17 -1,-10 -9,-36 -20,-58 -11,-22 -19,-51 -20,-64 0,-20 2,-21 15,-11 8,7 15,25 15,40 0,15 9,39 20,52 10,14 22,44 26,66 4,23 13,47 20,53 8,6 14,22 14,34 0,12 9,33 19,47 11,13 23,41 26,62 4,20 14,43 21,51 8,8 17,27 20,44 4,16 12,32 19,35 7,2 15,20 19,39 4,19 13,40 21,47 8,7 15,20 15,30 0,9 9,29 20,43 11,14 20,35 20,46 0,12 9,29 20,38 11,10 20,28 20,40 0,13 9,31 20,40 11,10 20,25 20,34 0,9 8,27 19,40 10,13 22,35 26,49 4,14 16,36 26,49 11,13 19,37 19,53 0,16 4,27 9,24 5,-3 14,1 21,9 14,17 10,47 -6,37 z" /><path
           id="p2TszMGvs"
           d="m 5383,10380 c -6,-14 -14,-40 -18,-58 -4,-18 -13,-45 -21,-60 -8,-15 -14,-35 -14,-45 0,-9 -9,-34 -20,-54 -11,-21 -20,-48 -20,-61 0,-13 -6,-38 -14,-55 -19,-41 -37,-109 -31,-116 11,-11 34,38 40,86 4,32 12,53 22,57 11,5 14,17 11,44 -2,29 2,44 18,61 13,14 24,41 27,67 2,25 12,53 21,63 12,13 16,32 14,58 -4,37 -4,37 -15,13 z" /><path
           id="p14E9JtX6m"
           d="m 5221,9889 c -6,-18 -11,-46 -11,-63 0,-26 2,-28 14,-16 16,17 30,110 17,110 -5,0 -14,-14 -20,-31 z" /><path
           id="p10PVCPSvJ"
           d="m 5183,9745 c -7,-22 -13,-56 -13,-75 0,-31 1,-33 16,-19 11,12 14,32 12,75 l -3,59 z" /><path
           id="p61eTrRkG"
           d="m 5145,9603 c -3,-10 -9,-49 -11,-88 -5,-65 -4,-69 10,-51 11,14 16,41 16,88 0,70 -3,81 -15,51 z" /><path
           id="pl12xeiB5"
           d="m 5101,9353 c -44,-273 -51,-326 -51,-362 0,-23 4,-41 10,-41 12,0 18,41 24,174 3,74 9,112 18,117 14,9 29,167 16,175 -3,2 -11,-26 -17,-63 z" /><path
           id="prXD6CL9H"
           d="m 5021,8813 c -7,-49 -11,-104 -9,-123 3,-32 4,-33 15,-15 12,21 22,210 11,220 -3,3 -11,-34 -17,-82 z" /><path
           id="pA8OHodpE"
           d="m 4982,8530 c -8,-47 -12,-104 -10,-125 3,-38 4,-39 16,-18 9,16 12,56 10,125 l -3,103 z" /><path
           id="p1H3ykqgy9"
           d="m 4957,8323 c -3,-5 -10,-44 -17,-88 -25,-173 -53,-334 -71,-418 -21,-97 -24,-157 -9,-157 12,0 17,26 24,124 4,45 12,86 20,95 9,10 15,53 19,119 4,72 10,108 20,120 11,12 16,45 19,115 2,53 2,97 1,97 -1,0 -4,-3 -6,-7 z" /></g></g><g
       id="l1V6fXESLFjZqWviZpfg9Rt"
       fill="#ffec9c"><g
         id="g280"><path
           id="pIPPlrejx"
           d="m 11223,15090 c -18,-4 -39,-12 -45,-17 -7,-6 -32,-13 -56,-16 -24,-3 -51,-12 -61,-21 -12,-11 -37,-16 -74,-16 -41,0 -58,-4 -65,-16 -6,-10 -30,-20 -62,-25 -29,-4 -60,-15 -70,-24 -10,-9 -35,-15 -62,-15 -31,0 -52,-6 -68,-20 -13,-11 -37,-20 -56,-20 -19,0 -41,-8 -51,-19 -10,-10 -39,-21 -67,-25 -27,-3 -57,-13 -66,-21 -9,-8 -30,-15 -47,-15 -17,0 -41,-8 -54,-19 -13,-10 -42,-21 -64,-25 -22,-4 -47,-13 -55,-21 -8,-7 -31,-15 -51,-19 -21,-4 -42,-13 -48,-20 -6,-7 -29,-16 -50,-20 -21,-3 -44,-12 -50,-20 -6,-7 -29,-16 -50,-20 -21,-3 -41,-13 -45,-21 -3,-10 -19,-15 -43,-15 -27,0 -42,-6 -50,-19 -7,-11 -29,-22 -52,-26 -23,-4 -41,-11 -41,-15 0,-5 -17,-14 -39,-20 -21,-5 -44,-17 -51,-25 -7,-8 -23,-15 -36,-15 -13,0 -32,-9 -41,-20 -10,-11 -29,-20 -44,-20 -14,0 -34,-9 -44,-20 -10,-11 -28,-20 -41,-20 -13,0 -28,-8 -33,-19 -6,-10 -26,-22 -45,-25 -19,-4 -37,-13 -40,-21 -3,-8 -17,-15 -31,-15 -14,0 -33,-9 -42,-20 -10,-11 -28,-20 -40,-20 -13,0 -31,-9 -40,-20 -10,-11 -29,-20 -44,-20 -14,0 -34,-9 -44,-20 -10,-11 -29,-20 -42,-20 -13,0 -31,-9 -40,-20 -11,-12 -30,-20 -50,-20 -22,0 -33,-5 -33,-15 0,-8 -16,-19 -39,-25 -21,-5 -44,-16 -50,-24 -7,-8 -27,-17 -45,-20 -19,-4 -39,-13 -45,-20 -7,-8 -24,-17 -39,-21 -15,-4 -34,-12 -42,-20 -8,-7 -26,-16 -40,-20 -14,-4 -32,-13 -40,-20 -8,-7 -26,-16 -40,-20 -14,-4 -36,-16 -49,-26 -13,-11 -28,-19 -34,-19 -6,0 -18,-7 -28,-16 -9,-8 -26,-16 -37,-17 -12,0 -23,-9 -25,-19 -3,-11 -15,-18 -31,-18 -14,0 -33,-8 -43,-19 -10,-10 -29,-22 -43,-26 -14,-4 -33,-14 -43,-23 -19,-17 -50,-36 -84,-51 -11,-5 -24,-15 -28,-21 -4,-7 -22,-18 -39,-26 -17,-8 -43,-22 -57,-32 -14,-9 -56,-37 -92,-61 -37,-24 -67,-48 -67,-53 0,-4 -6,-8 -13,-8 -7,0 -22,-7 -32,-15 -11,-8 -37,-28 -59,-45 -21,-16 -45,-30 -53,-30 -7,0 -16,-6 -19,-14 -3,-8 -16,-17 -30,-20 -13,-4 -24,-11 -24,-16 0,-5 -17,-21 -37,-34 -21,-13 -58,-42 -83,-65 -25,-22 -50,-41 -55,-41 -6,0 -22,-12 -37,-27 -14,-16 -45,-44 -69,-63 -53,-43 -136,-120 -248,-227 -47,-45 -91,-83 -97,-83 -6,0 -16,-11 -22,-25 -6,-14 -19,-25 -27,-25 -9,0 -20,-11 -25,-24 -5,-13 -18,-27 -29,-31 -12,-3 -21,-13 -21,-21 0,-8 -36,-51 -80,-95 -44,-43 -80,-81 -80,-84 0,-3 -17,-23 -37,-45 -21,-22 -46,-50 -55,-62 -42,-55 -114,-144 -130,-160 -10,-10 -29,-35 -43,-58 -14,-22 -29,-40 -34,-40 -4,0 -13,-10 -19,-22 -7,-13 -30,-48 -52,-78 -40,-54 -125,-177 -145,-209 -6,-9 -24,-36 -40,-60 -17,-24 -36,-54 -43,-67 -7,-13 -17,-24 -23,-24 -5,0 -9,-9 -9,-19 0,-11 -8,-26 -19,-33 -10,-7 -22,-28 -25,-45 -4,-18 -13,-36 -19,-40 -19,-13 -57,-71 -57,-88 0,-8 -9,-20 -20,-27 -11,-7 -20,-22 -20,-34 0,-12 -8,-32 -19,-45 -10,-13 -22,-35 -26,-49 -4,-14 -16,-36 -26,-49 -11,-13 -19,-31 -19,-40 0,-9 -9,-24 -20,-34 -11,-9 -20,-27 -20,-40 0,-12 -9,-30 -20,-40 -11,-9 -20,-26 -20,-38 0,-11 -9,-32 -20,-46 -11,-14 -20,-34 -20,-43 0,-10 -7,-23 -15,-30 -8,-7 -17,-28 -21,-47 -4,-19 -12,-37 -19,-39 -7,-3 -15,-19 -19,-35 -3,-17 -12,-36 -20,-44 -7,-8 -17,-31 -21,-51 -3,-21 -15,-49 -26,-62 -10,-14 -19,-35 -19,-47 0,-12 -6,-28 -14,-34 -7,-6 -16,-30 -20,-53 -4,-22 -16,-52 -26,-66 -11,-13 -20,-38 -20,-53 0,-18 -8,-34 -20,-41 -14,-9 -20,-24 -20,-52 0,-22 -7,-47 -16,-57 -9,-10 -18,-37 -21,-61 -3,-24 -14,-54 -24,-67 -11,-14 -19,-40 -19,-63 0,-24 -5,-41 -14,-44 -8,-3 -17,-27 -21,-57 -4,-28 -14,-61 -22,-73 -7,-12 -16,-45 -20,-74 -4,-35 -12,-55 -24,-63 -16,-10 -19,-24 -19,-79 0,-57 -3,-70 -20,-80 -17,-11 -20,-24 -20,-86 0,-79 -15,-126 -31,-101 -7,10 -9,4 -8,-21 4,-109 -2,-179 -17,-194 -11,-12 -16,-44 -20,-123 -7,-144 -12,-176 -28,-170 -11,4 -14,-21 -15,-124 -1,-126 -13,-188 -31,-159 -5,7 -9,-49 -9,-126 -1,-119 -4,-143 -20,-165 -15,-20 -19,-45 -20,-134 -1,-83 -6,-114 -17,-126 -11,-13 -17,-48 -21,-121 -4,-68 -10,-109 -20,-119 -9,-11 -16,-51 -20,-107 -6,-98 -16,-128 -33,-102 -7,10 -10,-13 -10,-76 0,-66 -4,-95 -14,-103 -8,-6 -17,-37 -21,-68 -4,-31 -9,-62 -12,-70 -14,-35 36,-7 252,142 65,45 240,176 275,207 236,203 440,400 615,593 54,61 102,112 105,115 15,12 370,459 370,466 0,4 10,18 22,31 23,25 87,113 173,239 31,45 62,87 70,94 8,7 15,18 15,25 0,7 18,36 40,64 22,28 40,53 40,57 0,4 35,59 77,123 75,111 96,146 125,201 7,14 15,27 19,30 3,3 14,19 23,35 9,17 25,44 36,60 11,17 29,46 40,65 11,19 32,53 45,75 13,22 31,54 39,70 9,17 27,48 41,70 13,22 31,54 40,70 9,17 26,48 39,70 13,22 41,72 61,110 20,39 47,88 60,110 13,22 29,51 35,65 14,33 17,38 45,85 14,22 29,51 35,65 5,14 15,32 20,40 6,8 15,26 20,40 6,14 14,32 20,40 5,8 25,47 45,85 19,39 39,77 44,85 5,8 14,26 20,40 6,14 15,32 20,40 5,8 14,26 20,40 6,14 15,32 20,40 5,8 21,42 36,75 15,33 31,67 36,75 5,8 14,26 19,40 6,14 15,32 20,40 6,8 15,26 21,40 17,40 90,194 100,210 5,8 14,26 19,40 6,14 15,32 20,40 6,8 15,26 20,40 6,14 15,32 20,40 6,8 15,26 20,40 6,14 15,32 20,40 6,8 15,26 20,40 6,14 15,32 20,40 6,8 17,29 25,45 9,17 20,37 25,45 6,8 15,26 20,40 6,14 21,43 35,65 13,22 31,54 39,70 9,17 27,48 40,70 14,22 32,54 40,70 9,17 27,48 41,70 13,22 28,49 34,61 5,11 34,58 65,103 31,45 56,84 56,87 0,8 121,186 233,342 55,77 269,349 328,416 165,191 452,481 598,606 36,30 72,62 80,71 58,59 500,396 610,464 9,6 33,23 54,39 61,46 107,76 117,76 5,0 21,10 37,23 30,24 52,38 98,63 16,9 35,23 43,30 7,8 18,14 23,14 5,0 31,15 57,33 26,18 58,38 72,45 14,7 43,24 65,37 22,14 51,30 65,37 14,6 32,17 40,24 8,7 47,28 85,47 115,58 131,77 48,57 z" /></g></g></g></svg>
